/* XPM */
static char *Free_Converter_com_leaves_77874245[] = {
/* columns rows colors chars-per-pixel */
"20 20 152 2 ",
"   c #3C7A00",
".  c #3E7A00",
"X  c #417C00",
"o  c #427D00",
"O  c #437E00",
"+  c #437D06",
"@  c #468000",
"#  c #408600",
"$  c #488206",
"%  c #408900",
"&  c #448A00",
"*  c #428C00",
"=  c #4C830C",
"-  c #528D00",
";  c #548E00",
":  c #548C0E",
">  c #529000",
",  c #569100",
"<  c #549500",
"1  c #5A9300",
"2  c #559C00",
"3  c #5A9800",
"4  c #5C9C00",
"5  c #5E9D00",
"6  c #589804",
"7  c #4E8118",
"8  c #518418",
"9  c #559317",
"0  c #5E9613",
"q  c #5B9218",
"w  c #629A00",
"e  c #619C00",
"r  c #649E10",
"t  c #679C1B",
"y  c #699F1F",
"u  c #5CA000",
"i  c #60A000",
"p  c #64A300",
"a  c #65A700",
"s  c #68A200",
"d  c #6DA500",
"f  c #69A404",
"g  c #6EAA00",
"h  c #6AAC00",
"j  c #6DA80A",
"k  c #70A900",
"l  c #72AD00",
"z  c #74AE00",
"x  c #75AF0D",
"c  c #74B100",
"v  c #75B200",
"b  c #75B600",
"n  c #7DB600",
"m  c #77B800",
"M  c #79B800",
"N  c #7BBD00",
"B  c #79B20D",
"V  c #79AE1E",
"C  c #7CB814",
"Z  c #598927",
"A  c #5E8E29",
"S  c #5E8F2C",
"D  c #628D31",
"F  c #6A933A",
"G  c #6B923D",
"H  c #6C953F",
"J  c #6EA423",
"K  c #6FA727",
"L  c #6EA02C",
"P  c #6FA42F",
"I  c #7DB22B",
"U  c #7BAA38",
"Y  c #7AC000",
"T  c #7BC300",
"R  c #759E45",
"E  c #799E50",
"W  c #7C9A59",
"Q  c #78A04E",
"!  c #81BC00",
"~  c #88BF19",
"^  c #88BD25",
"/  c #82B22F",
"(  c #8ABA3C",
")  c #81C700",
"_  c #85C600",
"`  c #89C501",
"'  c #83CB00",
"]  c #89CC0F",
"[  c #8ED500",
"{  c #92C912",
"}  c #8EC623",
"|  c #94D120",
" . c #9BD329",
".. c #9ED72A",
"X. c #99C93F",
"o. c #A2D727",
"O. c #A8DC32",
"+. c #ABDC3C",
"@. c #8CBA44",
"#. c #95BF4C",
"$. c #8CBB54",
"%. c #84A760",
"&. c #8FAE6D",
"*. c #98BF64",
"=. c #91AF70",
"-. c #92A47D",
";. c #9FD140",
":. c #9DC558",
">. c #98C75E",
",. c #A8D944",
"<. c #A4D34A",
"1. c #AED750",
"2. c #B1DE52",
"3. c #B4E05C",
"4. c #ACCE6C",
"5. c #AFD16A",
"6. c #B0D265",
"7. c #B0D768",
"8. c #B5DE68",
"9. c #A9CF7A",
"0. c #BBDE70",
"q. c #B6DB79",
"w. c #BDE167",
"e. c #BBE36A",
"r. c #BEE372",
"t. c #BEE17F",
"y. c #C1DD78",
"u. c #C0E76B",
"i. c #C6EB73",
"p. c #CAEA77",
"a. c #9AAC84",
"s. c #9FAB91",
"d. c #A7AF9F",
"f. c gray71",
"g. c #B7B7B7",
"h. c #BBBBBB",
"j. c #B6C7A4",
"k. c #BEC1BA",
"l. c #C2DF93",
"z. c #C4E186",
"x. c #CCE98A",
"c. c #CBEB8D",
"v. c #D5F587",
"b. c #D5F29C",
"n. c gray76",
"m. c #C3C3C3",
"M. c #CBCBCB",
"N. c gray83",
"B. c #DADADA",
"V. c #DCDFDA",
"C. c #DDDDDD",
"Z. c gray89",
/* pixels */
"Z.Z.Z.Z.Z.Z.Z.Z.Z.Z.Z.Z.Z.Z.Z.Z.Z.Z.Z.Z.",
"Z.Z.Z.Z.Z.Z.Z.Z.Z.Z.Z.Z.Z.Z.Z.Z.Z.Z.Z.Z.",
"Z.Z.Z.Z.Z.Z.Z.Z.Z.Z.j.%.S     q : $ Z.Z.",
"Z.Z.Z.Z.Z.Z.Z.V.Q @ J :.5.z.*.l.L s.Z.Z.",
"Z.Z.Z.Z.Z.Z.=.@ U 0.p.1.K J ,.T 7 B.Z.Z.",
"Z.Z.Z.Z.Z.A y i.x.e ! & #. .' C H Z.Z.Z.",
"Z.Z.Z.Z.A t u.o.w.f # 4...' ) ( Z Z.Z.Z.",
"Z.Z.Z.&.0 v.p _ 1.6 P r u a h I X Z.Z.Z.",
"Z.Z.Z.+ 2.+./ g g 9 b.c.8.;.} <.X Z.Z.Z.",
"Z.Z.Z.  O.{ 6.- & q.| Y N M b ~ O Z.Z.Z.",
"Z.Z.Z.X ` ! t.* >.3.T N M b c c O Z.Z.Z.",
"Z.Z.Z.D d n % $.@.< 3 j V x l g O Z.Z.Z.",
"Z.Z.Z.a., 2 9.r.0.t.7.X.^ B k 1 G Z.Z.Z.",
"Z.Z.Z.E 4 ] e.T M b c c l g w O k.Z.Z.Z.",
"Z.Z.R e [ 3 - h m m c z s ; O d.B.Z.Z.Z.",
"Z.Z.F i 5 8 -.D O O O O + W g.C.Z.Z.Z.Z.",
"Z.Z.m.F = h.N.m.g.g.f.f.g.M.Z.Z.Z.Z.Z.Z.",
"Z.Z.Z.m.g.Z.Z.Z.Z.Z.Z.Z.Z.Z.Z.Z.Z.Z.Z.Z.",
"Z.Z.Z.Z.Z.Z.Z.Z.Z.Z.Z.Z.Z.Z.Z.Z.Z.Z.Z.Z.",
"Z.Z.Z.Z.Z.Z.Z.Z.Z.Z.Z.Z.Z.Z.Z.Z.Z.Z.Z.Z."
};
