/* XPM */
static char *_jv68_i2eda[] = {
/* columns rows colors chars-per-pixel */
"20 20 108 2 ",
"   c #222222",
".  c #222323",
"X  c #232323",
"o  c #2C2C2D",
"O  c #2D2D2D",
"+  c #2D2D2E",
"@  c gray18",
"#  c #2E2F2F",
"$  c #2F2F2F",
"%  c gray19",
"&  c #313131",
"*  c #323232",
"=  c gray20",
"-  c #367E00",
";  c #367F00",
":  c #377F00",
">  c #378000",
",  c #3E8400",
"<  c #478900",
"1  c #488B00",
"2  c #498B00",
"3  c #4B8C00",
"4  c #4C8C00",
"5  c #529400",
"6  c #599B00",
"7  c #5C9900",
"8  c #67A300",
"9  c #789E49",
"0  c #7A9F52",
"q  c #84BA00",
"w  c #86BB00",
"e  c #83BC00",
"r  c #88BE00",
"t  c #8DC100",
"y  c #8FC800",
"u  c #90C900",
"i  c #94CA00",
"p  c #99CD00",
"a  c #9AD100",
"s  c #9FD400",
"d  c #8AB05C",
"f  c #8AB15D",
"g  c #8EB562",
"h  c #8FB663",
"j  c #9BC26D",
"k  c #C6E077",
"l  c #CBE572",
"z  c #CEE777",
"x  c #D4EE74",
"c  c #A3A5A5",
"v  c #A4A7A7",
"b  c #ABADAD",
"n  c #ABAEAD",
"m  c #ABAEAE",
"M  c #ACAEAE",
"N  c #ACAEAF",
"B  c #ADAFAF",
"V  c #B0AFB7",
"C  c #ADB0B0",
"Z  c #AFB0B3",
"A  c #B2B4B4",
"S  c gray71",
"D  c #B4B6B6",
"F  c #B9B5C5",
"G  c #BBB4CB",
"H  c #BEC0C0",
"J  c #BFC0C0",
"K  c #C3C3C3",
"L  c #C8C8C8",
"P  c #CACBCB",
"I  c #DEDFE0",
"U  c #E2E3E3",
"Y  c gray89",
"T  c #E4E5E7",
"R  c gray91",
"E  c #E8E9E9",
"W  c #E9E9E9",
"Q  c #EAEBEB",
"!  c #E9EBEC",
"~  c #EAEBEC",
"^  c #EBEBEE",
"/  c #EBECED",
"(  c #EEEEEE",
")  c #EEEFEF",
"_  c #EFEFF0",
"`  c #F0F1F2",
"'  c #F0F1F3",
"]  c #F2F4F3",
"[  c #F1F1F4",
"{  c #F3F4F4",
"}  c #F5F5F6",
"|  c #F6F6F6",
" . c #F4F3F8",
".. c #F6F4FD",
"X. c #F8F7F9",
"o. c #F8F8F9",
"O. c #F9F9F9",
"+. c gray98",
"@. c #FBFBFB",
"#. c #FBFAFD",
"$. c #FDF9FF",
"%. c #FCFAFF",
"&. c gray99",
"*. c #FDFCFC",
"=. c #FDFDFE",
"-. c #FEFEFE",
";. c #FFFEFF",
":. c white",
/* pixels */
"Y Y Y Y Y Y Y Y Y Y Y Y Y Y Y Y Y Y Y Y ",
"Y Y Y Y Y Y Y Y Y Y Y Y Y Y Y Y Y Y Y Y ",
"Y Y D C M m m m n m B A Y Y Y Y Y Y Y Y ",
"Y Y B :.:.:.:.:.:.:.:.W J Y Y Y Y Y Y Y ",
"Y Y M :.I o o o I :.c :.R H Y Y Y Y Y Y ",
"Y Y m :.U O O.O U :.v Q :.W J Y Y Y Y Y ",
"Y O   = + @ +.@ T :.P v c :.B Y Y Y Y Y ",
"Y O ( :.+.+.+.@ E ] :.:.:.:.N Y Y Y Y Y ",
"Y O   = # $ $ $ / ~ ! ~ ^ :.V Y Y Y Y Y ",
"Y O ( :.@.$ ) ) ) ) _ [ ..:.G Y Y Y Y Y ",
"Y O ( = &.% % % ` '  .$.g > , < f Y Y Y ",
"Y O ( :.&.&.&.% { } %.h 6 a x s 8 d Y Y ",
"Y O   = & & & & | X.:.- i y :.u p 3 Y Y ",
"Y O ( = =.& o.o.o.#.:.: l :.:.:.z 2 Y Y ",
"Y O ( = -.* * * *.;.:.; r e :.e t 4 Y Y ",
"Y O ) :.:.:.:.= :.:.:.j 5 q k w 7 9 Y Y ",
"Y O X .         b M Z F 0 1 2 4 9 L Y Y ",
"Y Y K S S S S S S S S S S S S S L Y Y Y ",
"Y Y Y Y Y Y Y Y Y Y Y Y Y Y Y Y Y Y Y Y ",
"Y Y Y Y Y Y Y Y Y Y Y Y Y Y Y Y Y Y Y Y "
};
