/* XPM */
static char *gisag_xnn7d[] = {
/* columns rows colors chars-per-pixel */
"20 20 108 2 ",
"   c #222222",
".  c #222323",
"X  c #232323",
"o  c #2D2D2D",
"O  c #2F2F2F",
"+  c gray19",
"@  c #313131",
"#  c #323232",
"$  c gray20",
"%  c #367E00",
"&  c #367F00",
"*  c #377F00",
"=  c #378000",
"-  c #3E8400",
";  c #478900",
":  c #488B00",
">  c #498B00",
",  c #4B8C00",
"<  c #4C8C00",
"1  c #529400",
"2  c #599B00",
"3  c #5C9900",
"4  c #67A300",
"5  c #789E49",
"6  c #7A9F52",
"7  c #84BA00",
"8  c #86BB00",
"9  c #83BC00",
"0  c #88BE00",
"q  c #8DC100",
"w  c #8FC800",
"e  c #90C900",
"r  c #94CA00",
"t  c #99CD00",
"y  c #9AD100",
"u  c #9FD400",
"i  c #8AB05C",
"p  c #8AB15D",
"a  c #8EB562",
"s  c #8FB663",
"d  c #9BC26D",
"f  c #C6E077",
"g  c #CBE572",
"h  c #CEE777",
"j  c #D4EE74",
"k  c #A3A5A5",
"l  c #A4A7A7",
"z  c #ABADAD",
"x  c #ABAEAD",
"c  c #ABAEAE",
"v  c #ACAEAE",
"b  c #ACAEAF",
"n  c #ADAFAF",
"m  c #B0AFB7",
"M  c #ADB0B0",
"N  c #AFB0B3",
"B  c #B2B4B4",
"V  c gray71",
"C  c #B4B6B6",
"Z  c #B9B5C5",
"A  c #BBB4CB",
"S  c #BEC0C0",
"D  c #BFC0C0",
"F  c #C3C3C3",
"G  c #C8C8C8",
"H  c #CACBCB",
"J  c #DEDFE0",
"K  c #DEDFE1",
"L  c #DFE0E1",
"P  c #E2E3E3",
"I  c gray89",
"U  c #E3E4E4",
"Y  c #E4E5E4",
"T  c #E4E5E7",
"R  c #E6E7E8",
"E  c gray91",
"W  c #E8E9E9",
"Q  c #E9E9E9",
"!  c #E9EAEA",
"~  c #EAEBEB",
"^  c #E9EBEC",
"/  c #EAEBEC",
"(  c #EBEBEE",
")  c #EBECED",
"_  c #EEEEEE",
"`  c #EEEFEF",
"'  c #EFEFF0",
"]  c #F0F1F2",
"[  c #F0F1F3",
"{  c #F2F4F3",
"}  c #F1F1F4",
"|  c #F3F4F4",
" . c #F5F5F6",
".. c #F6F6F6",
"X. c #F4F3F8",
"o. c #F6F4FD",
"O. c #F8F7F9",
"+. c #F8F8F9",
"@. c #FBFBFB",
"#. c #FBFAFD",
"$. c #FDF9FF",
"%. c #FCFAFF",
"&. c gray99",
"*. c #FDFCFC",
"=. c #FDFDFE",
"-. c #FEFEFE",
";. c #FFFEFF",
":. c white",
/* pixels */
"I I I I I I I I I I I I I I I I I I I I ",
"I I I I I I I I I I I I I I I I I I I I ",
"I I C M v c c c x c n B I I I I I I I I ",
"I I n :.:.:.:.:.:.:.:.Q D I I I I I I I ",
"I I v :.J K L K J :.k :.E S I I I I I I ",
"I I c :.P U Y U P :.l ~ :.Q D I I I I I ",
"I I x :.T R R R T :.H l k :.n I I I I I ",
"I I z :.W ! ! ! W { :.:.:.:.b I I I I I ",
"I I z :./ O O O ) / ^ / ( :.m I I I I I ",
"I I z :.` O @.O ` ` ' } o.:.A I I I I I ",
"I o   $ + + &.+ ] [ X.$.a = - ; p I I I ",
"I o _ :.&.&.&.+ |  .%.s 2 y j u 4 i I I ",
"I o   $ @ @ @ @ ..O.:.% r w :.e t , I I ",
"I o _ :.=.@ +.+.+.#.:.* g :.:.:.h > I I ",
"I o _ $ -.# # # *.;.:.& 0 9 :.9 q < I I ",
"I o ` :.:.:.:.$ :.:.:.d 1 7 f 8 3 5 I I ",
"I o X .         z v N Z 6 : > < 5 G I I ",
"I I F V V V V V V V V V V V V V G I I I ",
"I I I I I I I I I I I I I I I I I I I I ",
"I I I I I I I I I I I I I I I I I I I I "
};
