/* XPM */
static char *x478x_mtfup[] = {
/* columns rows colors chars-per-pixel */
"20 20 142 2 ",
"   c #358500",
".  c #368500",
"X  c #378500",
"o  c #368600",
"O  c #388800",
"+  c #458B00",
"@  c #478C00",
"#  c #488B00",
"$  c #4A8B00",
"%  c #4A8C00",
"&  c #549900",
"*  c #569900",
"=  c #7B931F",
"-  c #59A000",
";  c #5CA100",
":  c #749F4B",
">  c #749E4E",
",  c #848E17",
"<  c #898E1A",
"1  c #8E9C1E",
"2  c #85BB00",
"3  c #83BC00",
"4  c #BB8438",
"5  c #8FA023",
"6  c #CD8E32",
"7  c #CD8E33",
"8  c #CE8E32",
"9  c #CD8E34",
"0  c #CD8E35",
"q  c #CD8F35",
"w  c #CC8E36",
"e  c #CE8E36",
"r  c #CE8F36",
"t  c #C38C3D",
"y  c #C58D3D",
"u  c #C48D3E",
"i  c #D18F35",
"p  c #D58F3B",
"a  c #CF9139",
"s  c #CF9239",
"d  c #D09239",
"f  c #DC913D",
"g  c #ECAC3C",
"h  c #89C000",
"j  c #8CC100",
"k  c #8FC900",
"l  c #94CB00",
"z  c #97CD00",
"x  c #9AD300",
"c  c #95B146",
"v  c #CE9441",
"b  c #CF9749",
"n  c #D09948",
"m  c #D0994A",
"M  c #DEA547",
"N  c #DEA649",
"B  c #EDAE40",
"V  c #ECAE41",
"C  c #EDAE41",
"Z  c #E6AD4A",
"A  c #F0AE43",
"S  c #F5AF46",
"D  c #FAAF44",
"F  c #E8B24F",
"G  c #F0B549",
"H  c #F0B64E",
"J  c #F0B74F",
"K  c #FAB148",
"L  c #FBB148",
"P  c #E1AB50",
"I  c #E0AB52",
"U  c #E1AE54",
"Y  c #E3B055",
"T  c #E5B359",
"R  c #EDB858",
"E  c #F4B751",
"W  c #F7BF53",
"Q  c #F3BC54",
"!  c #F3BD57",
"~  c #FDB956",
"^  c #F3BD58",
"/  c #F4BD59",
"(  c #FCBF5E",
")  c #D4AB6F",
"_  c #D4AB72",
"`  c #D5AC70",
"'  c #D5AC71",
"]  c #D5AC73",
"[  c #F7C45F",
"{  c #F8C45D",
"}  c #F9C45D",
"|  c #FAC65E",
" . c #F7C460",
".. c #F9C561",
"X. c #FBCB69",
"o. c #FFC869",
"O. c #FCCB68",
"+. c #FDCC68",
"@. c #FDCD69",
"#. c #FDCC6B",
"$. c #FFD26F",
"%. c #FFD073",
"&. c #FFD471",
"*. c #FFD572",
"=. c #FFD776",
"-. c #FFD874",
";. c #FFD876",
":. c #FFD878",
">. c #FFDB7F",
",. c #C6E077",
"<. c #CBE675",
"1. c #CEE777",
"2. c #D3EF76",
"3. c #BBAE9B",
"4. c #BAAE9C",
"5. c #BBAE9D",
"6. c #BDAFA0",
"7. c gray71",
"8. c #B9B9B9",
"9. c #FFDF84",
"0. c #FFD988",
"q. c #FCD98F",
"w. c #F2CE91",
"e. c #F2CE92",
"r. c #F4CF91",
"t. c #F4CF93",
"y. c #F4D093",
"u. c #F6D092",
"i. c #F6D095",
"p. c #F7D195",
"a. c #FCDB9A",
"s. c #FBDDA5",
"d. c #FBE1B4",
"f. c #FFE4BA",
"g. c #C8C8C8",
"h. c gray79",
"j. c gray85",
"k. c #DADADA",
"l. c #FBE6C4",
"z. c #FCE7C5",
"x. c gray89",
"c. c white",
/* pixels */
"x.x.x.x.x.x.x.x.x.x.x.x.x.x.x.x.x.x.x.x.",
"x.x.x.x.x.x.x.x.x.x.x.x.x.x.x.x.x.x.x.x.",
"x.x.x.x.x.x.x.x.x.x.x.x.x.x.x.x.x.x.x.x.",
"x.x.x.x.x.n s d s a a s d s ` x.x.x.x.x.",
"x.x.x.x.m Z N y M W W M y N Z ] x.x.x.x.",
"x.x.x.b F { } | P 4 4 P | } { F _ x.x.x.",
"x.x.' R @.@.I t U +.+.U t I @.@.R ) x.x.",
"x.x.q -.Y u T *.&.$.$.&.*.T u Y -.q x.x.",
"x.x.6 l.r.y.y.e.e.w.w.e.t.i.p.u.z.8 x.x.",
"x.x.6 d.g B V V V V C A S K L D f.i x.x.",
"x.x.7 s.G H J J J J E ~ 1 o X . c f x.x.",
"x.x.7 a.Q ! ^ ^ ^ / ( 5 - x 2.x ; < x.x.",
"x.x.9 q.{ [  . . ...o.  l k c.k z + x.x.",
"x.x.0 0.O.X.X.X.X.#.%.X <.c.c.c.1.# x.x.",
"x.x.r 9.;.=.=.=.=.:.>.O h 3 c.3 j @ x.x.",
"x.x.v r w w w w w e p , & 2 ,.2 * = x.x.",
"x.x.8.3.4.4.4.4.4.4.5.6.> % $ % : 8.x.x.",
"x.x.x.j.k.k.k.k.k.k.k.k.h.7.7.7.g.x.x.x.",
"x.x.x.x.x.x.x.x.x.x.x.x.x.x.x.x.x.x.x.x.",
"x.x.x.x.x.x.x.x.x.x.x.x.x.x.x.x.x.x.x.x."
};
