/* XPM */
static char *_z6lg_v8hyy[] = {
/* columns rows colors chars-per-pixel */
"20 20 137 2 ",
"   c #3B8000",
".  c #418400",
"X  c #428400",
"o  c #438400",
"O  c #468700",
"+  c #498B00",
"@  c #4B8A00",
"#  c #4A8B00",
"$  c #4B8C00",
"%  c #4C8C00",
"&  c #4C8D00",
"*  c #5C9900",
"=  c #5D9900",
"-  c #5D9C00",
";  c #67A300",
":  c #348852",
">  c #789E49",
",  c #7C9F4C",
"<  c #86BB00",
"1  c #83BC00",
"2  c #8DC000",
"3  c #8DC100",
"4  c #8FC800",
"5  c #90C900",
"6  c #96CB00",
"7  c #99CD00",
"8  c #9CD200",
"9  c #9FD400",
"0  c #8AB05C",
"q  c #8DB15F",
"w  c #81B160",
"e  c #82B160",
"r  c #C6E077",
"t  c #CDE673",
"y  c #CEE777",
"u  c #D5EE73",
"i  c #0177B2",
"p  c #0479B3",
"a  c #077AB4",
"s  c #087AB4",
"d  c #0A7CB5",
"f  c #0C7DB5",
"g  c #0D7DB5",
"h  c #0E7EB6",
"j  c #0F7EB6",
"k  c #0F7FB6",
"l  c #0D7EB8",
"z  c #0E7FC6",
"x  c #1280B7",
"c  c #1F84B6",
"v  c #1481B8",
"b  c #1984B9",
"n  c #1C85BA",
"m  c #2086B9",
"M  c #2789BA",
"N  c #2289BC",
"B  c #298DBF",
"V  c #298EBF",
"C  c #3088B3",
"Z  c #3F8FB7",
"A  c #318BB9",
"S  c #4C94B9",
"D  c #2C8FC2",
"F  c #2E90C0",
"G  c #3492C1",
"H  c #3895C3",
"J  c #3B97C4",
"K  c #3093D4",
"L  c #4798C1",
"P  c #4199C6",
"I  c #499DC7",
"U  c #499EC8",
"Y  c #56A5CC",
"T  c #60A0C0",
"R  c #6AA2C1",
"E  c #77B0CC",
"W  c #7ABAED",
"Q  c gray71",
"!  c #82B3CA",
"~  c #93B5CE",
"^  c #88BFDB",
"/  c #AAB8C0",
"(  c #89C1DC",
")  c #B8CDD8",
"_  c #A7CFE4",
"`  c #A4CFE8",
"'  c #BADAE9",
"]  c #BBDBEA",
"[  c #B9DBFE",
"{  c #C8C8C8",
"}  c #C7D6DD",
"|  c gainsboro",
" . c #C2DFEC",
".. c #D9DEE0",
"X. c #C8E2EE",
"o. c #C9E2EE",
"O. c #CCE4F0",
"+. c #D1E8F0",
"@. c #D1E8F1",
"#. c #D1E9F1",
"$. c #D2E8F1",
"%. c #D3E8F1",
"&. c #D2E9F1",
"*. c #D4E9F3",
"=. c #D6EAF2",
"-. c #D3EAF6",
";. c #D7EAF4",
":. c #DBEDF4",
">. c #DDEEF5",
",. c #DDEEF6",
"<. c #DDEFF7",
"1. c #D7EBFF",
"2. c #D9ECF9",
"3. c #DDEFF8",
"4. c #D9EEFF",
"5. c #DCEFFF",
"6. c gray89",
"7. c #E0EFF6",
"8. c #E0F0F5",
"9. c #E4F1F7",
"0. c #E5F1F7",
"q. c #E5F4FF",
"w. c #EAF5F9",
"e. c #EBF5F9",
"r. c #EBF6F9",
"t. c #EEF7FA",
"y. c #F1F8FB",
"u. c #F2F8FB",
"i. c #F3F9FC",
"p. c #F5FAFC",
"a. c #F6FAFD",
"s. c #FBFEFE",
"d. c #FCFDFF",
"f. c #FCFEFE",
"g. c #FDFEFE",
"h. c #FEFFFF",
"j. c white",
/* pixels */
"6.6.6.6.6.6.6.6.6.6.6.6.6.6.6.6.6.6.6.6.",
"6.6.6.6.6.6.6.6.6.6.6.6.6.6.6.6.6.6.6.6.",
"6.6.6.6.6.6.m J I H p a a s d k v } 6.6.",
"6.6.6.6.6.E _ j.j.j.j.j.j.j.j.' o.L 6.6.",
"6.6.6.6.6.c j.j.s.s.f.f.f.h.j.P  .G 6.6.",
"6.6.6.6.6.U j.i.y.y.y.y.u.p.j.i n N 6.6.",
"6.6.6.6...Y j.r.w.e.e.e.e.p.g.C Q Q 6.6.",
"6.6.6.6.) ^ j.0.9.9.9.9.9.a.X.S 6.6.6.6.",
"6.6.6.6.! ] t.>.>.>.>.,.<.d.` R 6.6.6.6.",
"6.6.6.6.T O.7.=.=.=.;.2.5.j.W ~ 6.6.6.6.",
"6.6.6.6.A j.&.+.@.#.-.4.e   o @ q 6.6.6.",
"6.6.6.6.M j.%.$.%.*.1.w - 8 u 9 ; 0 6.6.",
"6.6.b h k F V B V D K X 6 4 j.5 7 $ 6.6.",
"6.6.x j.j.j.j.j.j.j.[ . t j.j.j.y + 6.6.",
"6.6.Z ( 8.:.:.:.:.3.q.O 2 1 j.1 3 % 6.6.",
"6.6./ v j g f f f l z : = < r < * > 6.6.",
"6.6.| Q Q Q Q Q Q Q Q Q , & # % > { 6.6.",
"6.6.6.6.6.6.6.6.6.6.6.6.{ Q Q Q { 6.6.6.",
"6.6.6.6.6.6.6.6.6.6.6.6.6.6.6.6.6.6.6.6.",
"6.6.6.6.6.6.6.6.6.6.6.6.6.6.6.6.6.6.6.6."
};
