/* XPM */
static char *rc4qf_gijaf[] = {
/* columns rows colors chars-per-pixel */
"20 20 99 2 ",
"   c #2A1E0E",
".  c #271E10",
"X  c #2B200F",
"o  c #2A2115",
"O  c #302918",
"+  c #322E1F",
"@  c #222222",
"#  c #222323",
"$  c #232323",
"%  c #2D2D2D",
"&  c #2F2F2F",
"*  c #322E21",
"=  c #322E23",
"-  c #322F26",
";  c gray19",
":  c #313131",
">  c #323232",
",  c gray20",
"<  c #BCA26F",
"1  c #D39A46",
"2  c #D19B4D",
"3  c #DDAB54",
"4  c #D4A55E",
"5  c #E1AF54",
"6  c #E6B95D",
"7  c #CBA062",
"8  c #D6A763",
"9  c #C8A974",
"0  c #C5A97E",
"q  c #E2B661",
"w  c #E5BC6E",
"e  c #F9D56E",
"r  c #F6D473",
"t  c #FAD974",
"y  c #FCE07E",
"u  c #909090",
"i  c #979797",
"p  c #A3A5A5",
"a  c #A4A7A7",
"s  c #ABADAD",
"d  c #ABAEAD",
"f  c #ABAEAE",
"g  c #ACAEAE",
"h  c #ACAEAF",
"j  c #ADAFAF",
"k  c #B0AFB7",
"l  c #ADB0B0",
"z  c #B2B4B4",
"x  c gray71",
"c  c #B4B6B6",
"v  c #F1D18C",
"b  c #F6D889",
"n  c #FCE185",
"m  c #FCE288",
"M  c #FEE789",
"N  c #F9E08F",
"B  c #FBE295",
"V  c #FDE696",
"C  c #FEE994",
"Z  c #FEEA99",
"A  c #EED2A0",
"S  c #F2D9A5",
"D  c #F9E4A5",
"F  c #FBE6A5",
"G  c #FDE8A2",
"H  c #FBE6AE",
"J  c #FAE9BF",
"K  c #BEC0C0",
"L  c #BFC0C0",
"P  c #C1C1C1",
"I  c #C3C3C3",
"U  c #CACBCB",
"Y  c #CBCBCB",
"T  c #FCECC2",
"R  c #FCEDC3",
"E  c #F6EADA",
"W  c #DEDFE0",
"Q  c #DEDFE1",
"!  c #DFE0E1",
"~  c #E2E3E3",
"^  c gray89",
"/  c #E3E4E4",
"(  c #E4E5E4",
")  c #E4E5E7",
"_  c #E6E7E8",
"`  c gray91",
"'  c #E8E9E9",
"]  c #E9E9E9",
"[  c #E9EAEA",
"{  c #EAEBEB",
"}  c #EAEBEC",
"|  c #EBEBEE",
" . c #EEEEEE",
".. c #EEEFEF",
"X. c #F2F4F3",
"o. c gray99",
"O. c #FDFDFE",
"+. c #FEFEFE",
"@. c white",
/* pixels */
"^ ^ ^ ^ ^ ^ ^ ^ ^ ^ ^ ^ ^ ^ ^ ^ ^ ^ ^ ^ ",
"^ ^ ^ ^ ^ ^ ^ ^ ^ ^ ^ ^ ^ ^ ^ ^ ^ ^ ^ ^ ",
"^ ^ c l g f f f d f j z ^ ^ ^ ^ ^ ^ ^ ^ ",
"^ ^ j @.@.@.@.@.@.@.@.] L ^ ^ ^ ^ ^ ^ ^ ",
"^ ^ g @.W Q ! Q W @.p @.` K ^ ^ ^ ^ ^ ^ ",
"^ ^ f @.~ / ( / ~ @.a { @.] L ^ ^ ^ ^ ^ ",
"^ ^ d @.) _ _ _ ) @.U a p @.j ^ ^ ^ ^ ^ ",
"^ ^ s @.' [ [ [ ' X.@.@.@.@.h ^ ^ ^ ^ ^ ",
"^ ^ s @.} & o   1 1 1 9 | @.k ^ ^ ^ ^ ^ ",
"^ ^ s @...& E - R R H 1 1 1 1 1 < ^ ^ ^ ",
"^ % @ , ; ; E = e e v S S S S S 1 ^ ^ ^ ",
"^ %  .@.o.o.E * t 6 1 1 1 1 1 1 1 1 8 ^ ",
"^ % @ , : :   + r 5 T T T T T T T J 2 ^ ",
"^ %  .@.O.: 1 V 3 b F t t t t t B A 0 ^ ",
"^ %  ., +.>   O q G m y y y y n D 4 Y ^ ",
"^ % ..@.@.@.E X N C M M M M M Z w 0 ^ ^ ",
"^ % $ # @ @ .   1 1 1 1 1 1 1 1 7 Y ^ ^ ",
"^ ^ I x x x i u u u u u u u u x P ^ ^ ^ ",
"^ ^ ^ ^ ^ ^ ^ ^ ^ ^ ^ ^ ^ ^ ^ ^ ^ ^ ^ ^ ",
"^ ^ ^ ^ ^ ^ ^ ^ ^ ^ ^ ^ ^ ^ ^ ^ ^ ^ ^ ^ "
};
