/* XPM */
static char *b3v6n_qudvj[] = {
/* columns rows colors chars-per-pixel */
"20 20 98 2 ",
"   c #2A1E0E",
".  c #271E10",
"X  c #2B200F",
"o  c #2A2115",
"O  c #302918",
"+  c #322E1F",
"@  c #222222",
"#  c #222323",
"$  c #232323",
"%  c #2C2C2D",
"&  c #2D2D2D",
"*  c #2D2D2E",
"=  c gray18",
"-  c #2E2F2F",
";  c #2F2F2F",
":  c #322E21",
">  c #322E23",
",  c gray19",
"<  c #313131",
"1  c #323232",
"2  c gray20",
"3  c #BCA26F",
"4  c #D39A46",
"5  c #D19B4D",
"6  c #DDAB54",
"7  c #D4A55E",
"8  c #E1AF54",
"9  c #E6B95D",
"0  c #CBA062",
"q  c #D6A763",
"w  c #C8A974",
"e  c #C5A97E",
"r  c #E2B661",
"t  c #E5BC6E",
"y  c #F9D56E",
"u  c #F6D473",
"i  c #FAD974",
"p  c #FCE07E",
"a  c #909090",
"s  c #979797",
"d  c #A3A5A5",
"f  c #A4A7A7",
"g  c #ABAEAD",
"h  c #ABAEAE",
"j  c #ACAEAE",
"k  c #ACAEAF",
"l  c #ADAFAF",
"z  c #B0AFB7",
"x  c #ADB0B0",
"c  c #B2B4B4",
"v  c gray71",
"b  c #B4B6B6",
"n  c #F1D18C",
"m  c #F6D889",
"M  c #FCE185",
"N  c #FCE288",
"B  c #FEE789",
"V  c #F9E08F",
"C  c #FBE295",
"Z  c #FDE696",
"A  c #FEE994",
"S  c #FEEA99",
"D  c #EED2A0",
"F  c #F2D9A5",
"G  c #F9E4A5",
"H  c #FBE6A5",
"J  c #FDE8A2",
"K  c #FBE6AE",
"L  c #FAE9BF",
"P  c #FCEBBE",
"I  c #BEC0C0",
"U  c #BFC0C0",
"Y  c #C1C1C1",
"T  c #C3C3C3",
"R  c #CACBCB",
"E  c #CBCBCB",
"W  c #FCECC2",
"Q  c #FCEDC3",
"!  c #F6EADA",
"~  c #DEDFE0",
"^  c #E2E3E3",
"/  c gray89",
"(  c #E4E5E7",
")  c gray91",
"_  c #E8E9E9",
"`  c #E9E9E9",
"'  c #EAEBEB",
"]  c #EBEBEE",
"[  c #EEEEEE",
"{  c #EEEFEF",
"}  c #F2F4F3",
"|  c #F9F9F9",
" . c gray98",
".. c #FBFBFB",
"X. c gray99",
"o. c #FDFDFE",
"O. c #FEFEFE",
"+. c white",
/* pixels */
"/ / / / / / / / / / / / / / / / / / / / ",
"/ / / / / / / / / / / / / / / / / / / / ",
"/ / b x j h h h g h l c / / / / / / / / ",
"/ / l +.+.+.+.+.+.+.+.` U / / / / / / / ",
"/ / j +.~ % % % ~ +.d +.) I / / / / / / ",
"/ / h +.^ & | & ^ +.f ' +.` U / / / / / ",
"/ & @ 2 * =  .= ( +.R f d +.l / / / / / ",
"/ & [ +. . . .= _ } +.+.+.+.k / / / / / ",
"/ & @ 2 - ; o   4 4 4 w ] +.z / / / / / ",
"/ & [ +...; 4 P Q Q K 4 4 4 4 4 3 / / / ",
"/ & [ 2 X.,   > y y n F F F F F 4 / / / ",
"/ & [ +.X.X.! : i 9 4 4 4 4 4 4 4 4 q / ",
"/ & @ 2 < <   + u 8 W W W W W W W L 5 / ",
"/ & [ 2 o.< 4 Z 6 m H i i i i i C D e / ",
"/ & [ 2 O.1   O r J N p p p p M G 7 E / ",
"/ & { +.+.+.! X V A B B B B B S t e / / ",
"/ & $ # @ @ .   4 4 4 4 4 4 4 4 0 E / / ",
"/ / T v v v s a a a a a a a a v Y / / / ",
"/ / / / / / / / / / / / / / / / / / / / ",
"/ / / / / / / / / / / / / / / / / / / / "
};
