/* XPM */
static char *hvarf_znect[] = {
/* columns rows colors chars-per-pixel */
"20 20 114 2 ",
"   c #BB8438",
".  c #CD8E32",
"X  c #CD8E33",
"o  c #CD8E34",
"O  c #CD8E35",
"+  c #CD8F35",
"@  c #CC8E36",
"#  c #CE8F36",
"$  c #C38C3D",
"%  c #C58D3D",
"&  c #C48D3E",
"*  c #CF9139",
"=  c #CF9239",
"-  c #D09239",
";  c #ECAC3C",
":  c #B4976D",
">  c #BCA26F",
",  c #CF9440",
"<  c #D39A46",
"1  c #D19B4D",
"2  c #CC9E5A",
"3  c #D19E54",
"4  c #DEA547",
"5  c #DEA649",
"6  c #D8A44F",
"7  c #D3A155",
"8  c #DDAB54",
"9  c #EDAE40",
"0  c #ECAE41",
"q  c #E6AD4A",
"w  c #E8B24F",
"e  c #F0B549",
"r  c #F0B64E",
"t  c #E1AB50",
"y  c #E0AB52",
"u  c #E1AE54",
"i  c #E1AF54",
"p  c #E3B055",
"a  c #E5B359",
"s  c #E6B95D",
"d  c #EDB858",
"f  c #F7BF53",
"g  c #F3BC54",
"h  c #F3BD57",
"j  c #CBA062",
"k  c #D6A763",
"l  c #D3A969",
"z  c #D4AB6F",
"x  c #C8A974",
"c  c #C5A97E",
"v  c #D4AB72",
"b  c #D5AC70",
"n  c #D5AC73",
"m  c #E2B661",
"M  c #E5BC6E",
"N  c #F7C45F",
"B  c #F8C45D",
"V  c #F9C45D",
"C  c #FAC65E",
"Z  c #FBCB69",
"A  c #FCCB68",
"S  c #FDCC68",
"D  c #FDCD69",
"F  c #FFD26F",
"G  c #F9D56E",
"H  c #F0CF79",
"J  c #F6D473",
"K  c #FFD471",
"L  c #FFD572",
"P  c #FFD776",
"I  c #FAD974",
"U  c #FFD874",
"Y  c #FFD876",
"T  c #FCE07E",
"R  c gray71",
"E  c gray72",
"W  c gray",
"Q  c #FFDF84",
"!  c #F1D18C",
"~  c #F6D889",
"^  c #FFD988",
"/  c #FCD98F",
"(  c #F2CE91",
")  c #F2CE92",
"_  c #F4CF91",
"`  c #F4D093",
"'  c #FCDB9A",
"]  c #FCE185",
"[  c #FCE288",
"{  c #FEE789",
"}  c #F9E08F",
"|  c #FBE295",
" . c #FDE696",
".. c #FEE994",
"X. c #FCE69E",
"o. c #FEEA99",
"O. c #EED2A0",
"+. c #F2D9A5",
"@. c #FBDDA5",
"#. c #F9E4A5",
"$. c #FBE6A5",
"%. c #FDE8A2",
"&. c #FCE7A8",
"*. c #FBE6AE",
"=. c #FBE1B4",
"-. c #FCE8B2",
";. c #FAE9BF",
":. c #FCEBBE",
">. c #C1C1C1",
",. c #CBCBCB",
"<. c #FBE6C4",
"1. c #FCECC2",
"2. c #FCEDC3",
"3. c gray89",
/* pixels */
"3.3.3.3.3.3.3.3.3.3.3.3.3.3.3.3.3.3.3.3.",
"3.3.3.3.3.3.3.3.3.3.3.3.3.3.3.3.3.3.3.3.",
"3.3.3.3.3.b = - = * * = - = b 3.3.3.3.3.",
"3.3.3.3.n q 5 % 4 f f 4 % 5 q n 3.3.3.3.",
"3.3.3.v w B V C t     t C V B w v 3.3.3.",
"3.3.z d D D y $ u S S u $ y D D d 3 3.3.",
"3.3.+ U p & a L K F F K L a & p U + 3.3.",
"3.3.. <._ ` ` ) ) ( ( ) ) ` ` _ <.. 3.3.",
"3.3.. =.; 9 l < < < < x 0 0 9 ; =.. 3.3.",
"3.3.X @.e r < :.2.2.*.< < < < < > X 3.3.",
"3.3.X ' g h < -.G G ! +.+.+.+.+.< X 3.3.",
"3.3.o / B N < &.I s < < < < < < < < k 3.",
"3.3.O ^ A Z < X.J i 1.1.1.1.1.1.1.;.1 3.",
"3.3.# Q Y P <  .8 ~ $.I I I I I | O.c 3.",
"3.3., # @ @ < H m %.[ T T T T ] #.7 ,.3.",
"3.3.E R R R < 6 } ..{ { { { { o.M : 3.3.",
"3.3.3.3.3.3.2 < < < < < < < < < j ,.3.3.",
"3.3.3.3.3.3.W R R R R R R R R R >.3.3.3.",
"3.3.3.3.3.3.3.3.3.3.3.3.3.3.3.3.3.3.3.3.",
"3.3.3.3.3.3.3.3.3.3.3.3.3.3.3.3.3.3.3.3."
};
