/* XPM */
static char *zcjmb_ryf1d[] = {
/* columns rows colors chars-per-pixel */
"20 20 119 2 ",
"   c #BCA26F",
".  c #D39A46",
"X  c #D19B4D",
"o  c #C69853",
"O  c #D8A44F",
"+  c #DDAB54",
"@  c #D4A55E",
"#  c #E1AF54",
"$  c #E6B95D",
"%  c #CBA062",
"&  c #D6A763",
"*  c #D3A969",
"=  c #C8A974",
"-  c #C5A97E",
";  c #E2B661",
":  c #E5BC6E",
">  c #F9D56E",
",  c #F0CF79",
"<  c #F6D473",
"1  c #FAD974",
"2  c #FCE07E",
"3  c #0177B2",
"4  c #0479B3",
"5  c #077AB4",
"6  c #087AB4",
"7  c #0A7CB5",
"8  c #0D7DB5",
"9  c #0E7EB6",
"0  c #0F7EB6",
"q  c #0F7FB6",
"w  c #1280B7",
"e  c #1F84B6",
"r  c #1481B8",
"t  c #1984B9",
"y  c #1C85BA",
"u  c #2086B9",
"i  c #2789BA",
"p  c #2289BC",
"a  c #3088B3",
"s  c #3F8FB7",
"d  c #318BB9",
"f  c #4C94B9",
"g  c #2E90C0",
"h  c #3492C1",
"j  c #3895C3",
"k  c #3B97C4",
"l  c #4798C1",
"z  c #4199C6",
"x  c #499DC7",
"c  c #499EC8",
"v  c #56A5CC",
"b  c #60A0C0",
"n  c #6AA2C1",
"m  c #77B0CC",
"M  c #909090",
"N  c #A0A0A0",
"B  c gray71",
"V  c gray",
"C  c #F1D18C",
"Z  c #F6D889",
"A  c #FCE185",
"S  c #FCE288",
"D  c #FEE789",
"F  c #F9E08F",
"G  c #FBE295",
"H  c #FDE696",
"J  c #FEE994",
"K  c #FCE69E",
"L  c #FEEA99",
"P  c #EED2A0",
"I  c #F2D9A5",
"U  c #F9E4A5",
"Y  c #FBE6A5",
"T  c #FDE8A2",
"R  c #FCE7A8",
"E  c #FBE6AE",
"W  c #FCE8B2",
"Q  c #FAE9BF",
"!  c #FCEBBE",
"~  c #82B3CA",
"^  c #88BFDB",
"/  c #AAB8C0",
"(  c #89C1DC",
")  c #B8CDD8",
"_  c #A7CFE4",
"`  c #A4CFE8",
"'  c #BADAE9",
"]  c #BBDBEA",
"[  c #C1C1C1",
"{  c #CBCBCB",
"}  c #C7D6DD",
"|  c gainsboro",
" . c #FCECC2",
".. c #FCEDC3",
"X. c #C2DFEC",
"o. c #D9DEE0",
"O. c #C8E2EE",
"+. c #C9E2EE",
"@. c #CCE4F0",
"#. c #DBEDF4",
"$. c #DDEFF7",
"%. c gray89",
"&. c #E0F0F5",
"*. c #E4F1F7",
"=. c #E5F1F7",
"-. c #EAF5F9",
";. c #EBF5F9",
":. c #EBF6F9",
">. c #F1F8FB",
",. c #F2F8FB",
"<. c #F3F9FC",
"1. c #F5FAFC",
"2. c #F6FAFD",
"3. c #FBFEFE",
"4. c #FCFDFF",
"5. c #FCFEFE",
"6. c #FDFEFE",
"7. c #FEFFFF",
"8. c white",
/* pixels */
"%.%.%.%.%.%.%.%.%.%.%.%.%.%.%.%.%.%.%.%.",
"%.%.%.%.%.%.%.%.%.%.%.%.%.%.%.%.%.%.%.%.",
"%.%.%.%.%.%.u k x j 4 5 5 6 7 q r } %.%.",
"%.%.%.%.%.m _ 8.8.8.8.8.8.8.8.' +.l %.%.",
"%.%.%.%.%.e 8.8.3.3.5.5.5.7.8.z X.h %.%.",
"%.%.%.%.%.c 8.<.>.>.>.>.,.1.8.3 y p %.%.",
"%.%.%.%.o.v 8.:.-.;.;.;.;.1.6.a B B %.%.",
"%.%.%.%.) ^ 8.=.*.*.*.*.*.2.O.f %.%.%.%.",
"%.%.%.%.~ ] * . . . . = $.4.` n %.%.%.%.",
"%.%.%.%.b @.. ! ....E . . . . .   %.%.%.",
"%.%.%.%.d 8.. W > > C I I I I I . %.%.%.",
"%.%.%.%.i 8.. R 1 $ . . . . . . . . & %.",
"%.%.t 9 q g . K < #  . . . . . . .Q X %.",
"%.%.w 8.8.8.. H + Z Y 1 1 1 1 1 G P - %.",
"%.%.s ( &.#.. , ; T S 2 2 2 2 A U @ { %.",
"%.%./ r 0 8 . O F J D D D D D L : - %.%.",
"%.%.| B B B o . . . . . . . . . % { %.%.",
"%.%.%.%.%.%.V B B B B B N M M M [ %.%.%.",
"%.%.%.%.%.%.%.%.%.%.%.%.%.%.%.%.%.%.%.%.",
"%.%.%.%.%.%.%.%.%.%.%.%.%.%.%.%.%.%.%.%."
};
