/* XPM */
static char *Free_Converter_com_run_54251514[] = {
/* columns rows colors chars-per-pixel */
"20 20 39 1 ",
"  c #3F81B7",
". c #3F81B8",
"X c #4081B7",
"o c #4282B6",
"O c #4182B8",
"+ c #4284B9",
"@ c #4484B8",
"# c #4C87BA",
"$ c #368AC2",
"% c #4393CA",
"& c #4494CA",
"* c #4D9CD1",
"= c #4E9DD1",
"- c #56A3D6",
"; c #57A4D7",
": c #5FA6D6",
"> c #5EAADD",
", c #74A1C6",
"< c #64ACDC",
"1 c #65B2E4",
"2 c gray71",
"3 c gray72",
"4 c #94BDD7",
"5 c #9CC1DA",
"6 c #8CC3E6",
"7 c #8EC5EA",
"8 c #88C4EC",
"9 c #93C4E6",
"0 c #9AC8E6",
"q c #84C6F1",
"w c #8BCBF3",
"e c #87CDFC",
"r c #A3C7E0",
"t c #A3CBE7",
"y c #AACEE3",
"u c #A9CEE6",
"i c #B2D3E7",
"p c #C3DDEB",
"a c gray89",
/* pixels */
"aaaaaaaaaaaaaaaaaaaa",
"aaaaaaaaaaaaaaaaaaaa",
"aaaaaaaaaaaaaaaaaaaa",
"aaaaaaaaaaaaaaaaaaaa",
"aaaaaa,+aaaaaaaaaaaa",
"aaaaaaOp aaaaaaaaaaa",
"aaaaaa.iu aaaaaaaaaa",
"aaaaaa u$yXaaaaaaaaa",
"aaaaaaXt%&rOaaaaaaaa",
"aaaaaaX0==:5Oaaaaaaa",
"aaaaaa@9--<4+aaaaaaa",
"aaaaaaX7>>9O2aaaaaaa",
"aaaaaaX816O2aaaaaaaa",
"aaaaaaXqw 2aaaaaaaaa",
"aaaaaa@eX2aaaaaaaaaa",
"aaaaaa#@2aaaaaaaaaaa",
"aaaaaa32aaaaaaaaaaaa",
"aaaaaaaaaaaaaaaaaaaa",
"aaaaaaaaaaaaaaaaaaaa",
"aaaaaaaaaaaaaaaaaaaa"
};
