/* XPM */
static char *Free_Converter_com_save_5704528[] = {
/* columns rows colors chars-per-pixel */
"20 20 98 2 ",
"   c #004171",
".  c #41444A",
"X  c #48484C",
"o  c #797879",
"O  c #7B7879",
"+  c #04619B",
"@  c #067AB3",
"#  c #097CB5",
"$  c #0F7EB5",
"%  c #797F87",
"&  c #1581B6",
"*  c #1481B7",
"=  c #1681B6",
"-  c #1882B7",
";  c #699DB6",
":  c #0086DA",
">  c #1C98E0",
",  c #279BE0",
"<  c #2C9DE1",
"1  c #2F9EE2",
"2  c #36A1E1",
"3  c #40A6E3",
"4  c #45A8E5",
"5  c #4BABE5",
"6  c #51AEE6",
"7  c #51AEE7",
"8  c #5AB2E8",
"9  c #62B7E9",
"0  c #61B7EB",
"q  c #6DBCED",
"w  c #71C1F0",
"e  c #7DC6F2",
"r  c #888C94",
"t  c #929398",
"y  c #9F9F9F",
"u  c #A09D9D",
"i  c #99ABB6",
"p  c #A2A0A2",
"a  c #A3A1A3",
"s  c gray71",
"d  c #BABABC",
"f  c #80B3CD",
"g  c #89CBF1",
"h  c #8ECCF3",
"j  c #8BCDF6",
"k  c #94CEF3",
"l  c #9AD0F3",
"z  c #A4C9E6",
"x  c #A0D4F4",
"c  c #A7D8F6",
"v  c #B7DEF2",
"b  c #B0DCF8",
"n  c #BCE3FC",
"m  c gray80",
"M  c #C4CAD4",
"N  c #C9CED8",
"B  c #CECFD9",
"V  c #D2CFD6",
"C  c gray86",
"Z  c #D3DDEA",
"A  c #D5DEE9",
"S  c #D7E0EC",
"D  c #D6E3EF",
"F  c #D9E2ED",
"G  c #C3E7FC",
"H  c #C6E9FE",
"J  c #CDECFF",
"K  c #D6E3F0",
"L  c #D7E5F2",
"P  c #DAE4F1",
"I  c #DAE5F1",
"U  c #D8E5F2",
"Y  c #DEECF6",
"T  c #D1ECFD",
"R  c gray89",
"E  c #E0E8F1",
"W  c #EBEFF6",
"Q  c #E3F1FA",
"!  c #E5F1F9",
"~  c #E5F2FC",
"^  c #E7F4FE",
"/  c #E9F4FA",
"(  c #E8F5FD",
")  c #EEF9FB",
"_  c #EFF9FC",
"`  c #F7F4F7",
"'  c #F7F5F8",
"]  c #F2F7FE",
"[  c #FBF7F8",
"{  c #FAF6F9",
"}  c #F1F9FA",
"|  c #F6F9F9",
" . c #F0FAFC",
".. c #F7FAFC",
"X. c #F8FBFB",
"o. c #FDFFFB",
"O. c #F9FCFD",
"+. c #FFFFFE",
/* pixels */
"R R R R R R R R R R R R R R R R R R R R ",
"R R R R R R R R R R R R R R R R R R R R ",
"R R f * $ # # # # # # # # # # $ * f R R ",
"R R * J G +.+.+.+.+.+.+.+.+.+.G T * R R ",
"R R * T : +.L U L D L L L D +.: T * R R ",
"R R $ H   +.O O p y Y O p y +.  H $ R R ",
"R R * n + O.( ^ Q ! ~ ! Q ! ..+ n * R R ",
"R R * b > X.O p ^ O p u / u | > b - R R ",
"R R * c , +.| } ) ) _ _ _ _ o., c $ R R ",
"R R * x 2 v +.o.o.+.o.o.o.o.v 2 x * R R ",
"R R * l 4 2 2 < < < < < 1 2 2 5 l * R R ",
"R R * k 6 6 z +.+.+.+.+.+.z 5 6 l $ R R ",
"R R * h 8 6 +.S P U D Z A o.6 8 h - R R ",
"R R * g 0 8 X.] % . ] F F [ 8 9 g * R R ",
"R R - g q 0 ` +.. r +.E U ` 9 q g - R R ",
"R R * h e w { +.X t +.W W [ w e j - R R ",
"R R ; - * @ V N d i V M M V @ $ - ; R R ",
"R R m s s s s s C C s s s s s s s m R R ",
"R R R R R R R R R R R R R R R R R R R R ",
"R R R R R R R R R R R R R R R R R R R R "
};
