/* XPM */
static char *Free_Converter_com_saveas_57684729[] = {
/* columns rows colors chars-per-pixel */
"20 20 96 2 ",
"   c #565453",
".  c #565554",
"X  c gray34",
"o  c #797878",
"O  c #79797A",
"+  c #7C7A79",
"@  c #807C79",
"#  c #0368A5",
"$  c #0569A6",
"%  c #096BA7",
"&  c #0E6CA6",
"*  c #0E6DA6",
"=  c #0B6DA9",
"-  c #106DA7",
";  c #136FA7",
":  c #1371AA",
">  c #1472AB",
",  c #1974AC",
"<  c #1975AD",
"1  c #067AB3",
"2  c #097CB5",
"3  c #0F7EB5",
"4  c #127FB6",
"5  c #237AB0",
"6  c #1380B6",
"7  c #1481B7",
"8  c #1681B6",
"9  c #1882B7",
"0  c #6E9EB7",
"q  c #0083D8",
"w  c #098CDA",
"e  c #1592DD",
"r  c #2297DF",
"t  c #319EE0",
"y  c #32A1E4",
"u  c #37A4E6",
"i  c #3EA5E3",
"p  c #3AA6E7",
"a  c #3CA6E7",
"s  c #40A8E7",
"d  c #46AAE4",
"f  c #4DADE6",
"g  c #55B1E8",
"h  c #60B6EB",
"j  c #72C1F0",
"k  c #8C8B8B",
"l  c #928E8C",
"z  c #979695",
"x  c #9F9A97",
"c  c #9D9B9B",
"v  c #9E9E9F",
"b  c #A1A1A2",
"n  c #A5A3A1",
"m  c #A7A3A0",
"M  c #A6A4A3",
"N  c gray71",
"B  c #85B7CF",
"V  c #89CAF1",
"C  c #8FCBF3",
"Z  c #8ACCF6",
"A  c #95D0F3",
"S  c #9CD3F3",
"D  c #9ED6F6",
"F  c #A5CBE8",
"G  c #A4D5F4",
"H  c #A4D6F5",
"J  c #AEDAF5",
"K  c #B9DFF7",
"L  c #B8E1F4",
"P  c #CDCDCD",
"I  c #D4D0D7",
"U  c #D3D1D8",
"Y  c #DEDEDF",
"T  c #E0DEDD",
"R  c #D8E2EE",
"E  c #C5E5FA",
"W  c #C3E6FC",
"Q  c #CDECFF",
"!  c #DAE5F1",
"~  c #DBECF6",
"^  c #D2ECFB",
"/  c gray89",
"(  c #E5E7EE",
")  c #E0EBF5",
"_  c #E8F4F9",
"`  c #E8F6FD",
"'  c #EAF8FF",
"]  c #ECF8FD",
"[  c #F5F6F6",
"{  c #F8F5F8",
"}  c #FCF7F9",
"|  c #F2FBFE",
" . c #FBF8FA",
".. c gray98",
"X. c gray99",
"o. c #FFFFFE",
/* pixels */
"/ / / / / / / / / / / / / / / / / / / / ",
"/ / / / / / / / / / / / / / / / / / / / ",
"/ / B 7 3 2 2 2 2 2 2 2 2 3 6 B / / / / ",
"/ / 7 Q W o.o.o.o.o.o.o.o.W Q 7 / / / / ",
"/ / 4 ^ q o.! ! ! ! R R o.q ^ 4 / / / / ",
"/ / 4 E w o.o O b v ~ c o.w E 4 / / / / ",
"/ / 6 K e o.] ] ] ` _ _  .e K 4 / / / / ",
"/ / 7 J r o.+ n | o n m o.r J 4 / / / / ",
"/ / 7 H t K o.o.o.o.o.o.L y H 7 / / / / ",
"/ / 7 S i y y u p p p a s s D 7 / / / / ",
"/ / 6 A d F o.; ; - & & & & & ; , 5 / / ",
"/ / 4 C f o.( % ) o.o.o.o.o.o.o.o., / / ",
"/ / 7 V g  . .$ ~ l   k / Y Y Y o.> / / ",
"/ / 7 V h { o.# ~ o.X o. .[ [ [ o.: / / ",
"/ / 9 Z j } o.$ ~ x   z o.o.o.o.o.> / / ",
"/ / 0 9 1 I I = ~ o.o.o.o.o.o.o.o., / / ",
"/ / P N N N N > , > > > > > > > , 5 / / ",
"/ / / / / / / N N N N N N N N N N N / / ",
"/ / / / / / / / / / / / / / / / / / / / ",
"/ / / / / / / / / / / / / / / / / / / / "
};
