/* XPM */
static char *Free_Converter_com_show_rules_80494615[] = {
/* columns rows colors chars-per-pixel */
"20 20 52 1 ",
"  c #2E2E35",
". c gray19",
"X c #373738",
"o c #3C3C41",
"O c gray25",
"+ c gray26",
"@ c gray28",
"# c #46464C",
"$ c #565656",
"% c #5B5B5B",
"& c gray36",
"* c #5F5F5F",
"= c #5D5D64",
"- c #5F5F6D",
"; c gray39",
": c #646464",
"> c #6C6C6C",
", c gray43",
"< c #67677A",
"1 c gray45",
"2 c gray46",
"3 c #777777",
"4 c #7E7E7E",
"5 c #6F6F81",
"6 c #808080",
"7 c #84849E",
"8 c #909090",
"9 c gray58",
"0 c #9B9B9B",
"q c #9B9B9E",
"w c #9D9D9D",
"e c #A2A2A2",
"r c gray65",
"t c #ACACAC",
"y c gray69",
"u c #B2B2B2",
"i c #B2B2BA",
"p c gray74",
"a c #C0C0C0",
"s c #CBCBCB",
"d c gray82",
"f c gray84",
"g c gray86",
"h c gainsboro",
"j c gray88",
"k c gray89",
"l c #E7E7E7",
"z c gray91",
"x c gray94",
"c c #F6F6F6",
"v c #FBFBFB",
"b c gray100",
/* pixels */
"kkkkkkkkkkkkkkkkkkkk",
"kkkkkkkkkkkkkkkkkkkk",
"kkkkkkkkkkkkkkkkkkkk",
"kkkkkkkkkkkkkkkkkkkk",
"kkkkkkkkkkkkkkkkkkkk",
"kkkkkfw*X..+*wfkkkkk",
"kkkk0@;t6@+6t;@wkkkk",
"kkg4%svrwXXXrvs%4gkk",
"kke,lccpbqo#&ccz,ekk",
"kk$8xxx@i  -+xxx8$kk",
"kkt2kzz:5<<5:zzk2tkk",
"kkh91sze=77=els29gkk",
"kkkku24u8**8u62ukkkk",
"kkjdpuw61>>160uadkkk",
"kkkgdssssssssssdghkk",
"kkkkkkkkkkkkkkklkkkk",
"kkkkkkkkkkkkkkkkkkkk",
"kkkkkkkkkkkkkkkkkkkk",
"kkkkkkkkkkkkkkkkkkkk",
"kkkkkkkkkkkkkkkkkkkk"
};
