/* XPM */
static char *Free_Converter_com_tree_15881514[] = {
/* columns rows colors chars-per-pixel */
"20 20 38 1 ",
"  c #817F7E",
". c #3F8700",
"X c #438700",
"o c #418800",
"O c #448800",
"+ c #478900",
"@ c #6D9D3F",
"# c #7AA746",
"$ c #97BF00",
"% c #98BF00",
"& c #99CC00",
"* c #A0DD00",
"= c #A1DD00",
"- c #B3E81D",
"; c #C4E454",
": c #0F80B8",
"> c #1480B5",
", c #1581B6",
"< c #1882B7",
"1 c #1883B7",
"2 c #1381B8",
"3 c #1482B8",
"4 c #4895BA",
"5 c #35A1E2",
"6 c #529FC4",
"7 c #6BBDEF",
"8 c #D9E887",
"9 c #E1E799",
"0 c #E1E79B",
"q c #E7EA9C",
"w c #90CEF6",
"e c #A2D5F5",
"r c #A3D6F5",
"t c #A7D8F7",
"y c #C1C1C1",
"u c #CACACA",
"i c #CBCBCB",
"p c gray89",
/* pixels */
"pppppppppppppppppppp",
"pppppppppppppppppppp",
"ppppp#X.XXXXX#pppppp",
"pppppXq99900qXpppppp",
"pppppO8&$$$$8Xpppppp",
"pppppO;&&&&&;+pppppp",
"pppppO-*****-+pppppp",
"ppppp@OO.XXXX@pppppp",
"pppppuyyy yyyipppppp",
"pppp           ppppp",
"pppp yyyy yyyy ppppp",
"pp62:,662:2662:26ppp",
"pp,trt,,tet,,tet<ppp",
"pp,e5r,,r5e,>e5e,ppp",
"pp1w7w1,w7w1,w7w,ppp",
"pp4111441114411,4ppp",
"ppiyyyiuyyyuuyyyuppp",
"pppppppppppppppppppp",
"pppppppppppppppppppp",
"pppppppppppppppppppp"
};
