/* XPM */
static char *Free_Converter_com_unfold_70902951[] = {
/* columns rows colors chars-per-pixel */
"20 20 69 1 ",
"  c #478245",
". c #488245",
"X c #4B8546",
"o c #4B8548",
"O c #4A844A",
"+ c #4B844B",
"@ c #4C8549",
"# c #4D854B",
"$ c #568A52",
"% c #5A8F56",
"& c #5E8F5B",
"* c #6F966C",
"= c #6F966D",
"- c #729E6F",
"; c #7CA479",
": c #7FA579",
"> c #92C850",
", c #94C853",
"< c #98CC55",
"1 c #99CC55",
"2 c #3D7DB3",
"3 c #3F7EB3",
"4 c #3E81B7",
"5 c #4282B6",
"6 c #4082B8",
"7 c #4382B8",
"8 c #4383B8",
"9 c #4483B9",
"0 c #4384C2",
"q c #4899D0",
"w c #4F9FD5",
"e c #689AC3",
"r c #699AC8",
"t c #54A3D9",
"y c #5AA8DD",
"u c #75A2C6",
"i c #75A2C8",
"p c #64B1E4",
"a c #69B4E7",
"s c #6CB8E9",
"d c #6FB9EB",
"f c #72BCEE",
"g c #73BDEE",
"h c #76C1F2",
"j c #7AC4F4",
"k c gray71",
"l c gray72",
"z c #BBBBBB",
"x c #C9E89E",
"c c #D8E6B8",
"v c #D9E7BA",
"b c #DDEABB",
"n c #DFEBBD",
"m c #82C2ED",
"M c #9DCEEF",
"N c #8AC9F2",
"B c #8EC8F0",
"V c #8FCEF7",
"C c #8FCEF9",
"Z c #96CBF0",
"A c #A9D0EA",
"S c #ADD4EF",
"D c #BBDBEF",
"F c #A4D1F0",
"G c #B5D8F0",
"H c #BBDBF0",
"J c #BCDCF1",
"K c #C3C3C3",
"L c gray89",
/* pixels */
"LLLLLLLLLLLLLLLLLLLL",
"LLLLLLLLLLLLLLLLLLLL",
"LLLLLLLLLLLLLLLLLLLL",
"LLLLu66iLLL:o  ..%LL",
"LLLL6DA6LLLobcccn@LL",
"LLLL4Hq9LLLox>>,<@LL",
"LLLL4Jw9LLL=o@++@=LL",
"LLLL4Gt9LLLKkkkkkKLL",
"LLLL5Sy9LLL:o o%LLLL",
"LLLL5Fy5LLL bvboLLLL",
"LLLL4Mp9LLLXx><+LLLL",
"LLLL5Za5LLL=@@+=LLLL",
"LLe62Bs26rLKkkkKLLLL",
"LL9VNmdNC0L:oo-LLLLL",
"LLk5hggh6kLXbb@LLLLL",
"LLLk5jj5kLL@x<oLLLLL",
"LLLLk96kLLL&o@$LLLLL",
"LLLLLkkLLLLzkklLLLLL",
"LLLLLLLLLLLLLLLLLLLL",
"LLLLLLLLLLLLLLLLLLLL"
};
